<svg xmlns="http://www.w3.org/2000/svg" viewBox="0 0 316.78 134.7"><defs><style>.cls-1{fill:#fc0681;}</style></defs><title>logo</title><g id="Layer_2" data-name="Layer 2"><g id="Layer_1-2" data-name="Layer 1"><rect x="38.3" y="41.69" width="16.45" height="90.97"/><polygon points="93.23 6.74 93.23 20.54 54.75 20.54 54.75 20.93 38.3 20.93 38.3 20.54 0 20.54 0 6.74 93.23 6.74"/><path d="M98.27,70.44c0-10.65-.19-19.81-.75-28.22h14.39L112.47,60h.75c4.11-12.14,14-19.8,25-19.8a17.9,17.9,0,0,1,4.67.56V56.24a24.3,24.3,0,0,0-5.6-.56c-11.59,0-19.81,8.78-22,21.11a46.72,46.72,0,0,0-.74,7.66v48.2H98.27Z"/><path d="M241.28,40.18A46.06,46.06,0,0,0,218.39,46a44.42,44.42,0,0,0-22.6-5.79c-25,0-44.83,17.75-44.83,48,0,28.59,18.86,46.52,43.33,46.52a46.79,46.79,0,0,0,23-5.91,43.73,43.73,0,0,0,22.44,5.91c21.87,0,45-14.58,45-48C284.79,59,267.25,40.18,241.28,40.18Zm-.76,82.2a23.81,23.81,0,0,1-11.8-3.06,28.19,28.19,0,0,1-11-11.6,28.28,28.28,0,0,1-11.19,11.73A23.75,23.75,0,0,1,195,122.38c-16.06,0-27.45-14.95-27.45-34.74,0-17.21,8.41-35.13,27.84-35.13a23.9,23.9,0,0,1,11.73,2.88A26.73,26.73,0,0,1,217.8,66.8a26.16,26.16,0,0,1,11.31-11.62,25.52,25.52,0,0,1,11.78-2.67c19.43,0,27.09,19.43,27.09,34.74C268,107.62,256.22,122.38,240.52,122.38Z"/><path class="cls-1" d="M237.65,86.84c0,11.87-3.47,20.92-8.92,27.39a23.64,23.64,0,0,1-9.23-9.74,36.1,36.1,0,0,0,4-17.19,38.17,38.17,0,0,0-4-17.17,22,22,0,0,1,9.5-9.76C234.55,67.1,237.65,76.18,237.65,86.84Z"/><path d="M213,87.62a36,36,0,0,0,3.92,16.87,23.8,23.8,0,0,1-9.39,9.85C202.2,107.73,199,98.8,199,88.08c0-11.44,3.37-20.76,9-27.54A22.46,22.46,0,0,1,217,70.13,37.84,37.84,0,0,0,213,87.62Z"/><path d="M300.34,0h16.44V132.65H300.34Z"/></g></g></svg>